<svg id="Capa_1" data-name="Capa 1" xmlns="http://www.w3.org/2000/svg" viewBox="0 0 110.7 49.98"><defs><style>.cls-1{font-size:35.13px;font-family:ResiduSVG-Regular, Residu SVG;}.cls-1,.cls-2{fill:#fff;}</style></defs><text class="cls-1" transform="translate(0 40.28)">apátridas</text><path class="cls-2" d="M29.92,7.78a.09.09,0,0,1,0,.07v.39c0,.07,0,.1-.1.1H28a.1.1,0,0,0-.1.11v6.73c0,.12,0,.17-.14.17h-.45c-.08,0-.13,0-.13-.15V8.44c0-.07,0-.1-.08-.1H25.52c-.08,0-.11,0-.11-.1V7.85a.14.14,0,0,1,0-.07.12.12,0,0,1,.09,0h1.56c.07,0,.1,0,.1-.11V6.5a2,2,0,0,1,.4-1.34,1.61,1.61,0,0,1,1.27-.45h1.06c.08,0,.12,0,.12.11v.36a.12.12,0,0,1,0,.09.15.15,0,0,1-.1,0H28.79a.77.77,0,0,0-.7.29,1.5,1.5,0,0,0-.19.83V7.65a.09.09,0,0,0,.1.1h1.87A.05.05,0,0,1,29.92,7.78Z" transform="translate(-3.45 -4.51)"/><path class="cls-2" d="M35.23,14.48a7,7,0,0,0,1.32-1.06V7.89c0-.09.05-.14.15-.14h.43a.13.13,0,0,1,.14.14v7.32c0,.1,0,.14-.13.14h-.41c-.09,0-.13,0-.13-.12v-.89c0-.06,0-.1,0-.1s0,0-.09,0a6.23,6.23,0,0,1-1.49,1,3.3,3.3,0,0,1-1.19.25,2.59,2.59,0,0,1-1.2-.27,2,2,0,0,1-1.14-1.86V7.91c0-.11.05-.16.14-.16H32c.1,0,.15,0,.15.14v5.17a1.87,1.87,0,0,0,.45,1.3,1.56,1.56,0,0,0,1.24.51A2.58,2.58,0,0,0,35.23,14.48Z" transform="translate(-3.45 -4.51)"/><path class="cls-2" d="M39.8,15.21V7.89c0-.09,0-.14.12-.14h.42c.09,0,.13,0,.13.13v.87q0,.08,0,.09s0,0,.09,0a10.92,10.92,0,0,1,1-.65,3.67,3.67,0,0,1,.85-.41,3.1,3.1,0,0,1,.94-.13,2.33,2.33,0,0,1,1.73.59,2,2,0,0,1,.59,1.53V15.2a.13.13,0,0,1-.15.15h-.42a.11.11,0,0,1-.14-.14V10a1.85,1.85,0,0,0-.41-1.27,1.62,1.62,0,0,0-1.3-.46,2.57,2.57,0,0,0-.9.15,4,4,0,0,0-.85.43c-.29.19-.61.42-1,.71v5.68c0,.1,0,.14-.15.14h-.42C39.84,15.35,39.8,15.31,39.8,15.21Z" transform="translate(-3.45 -4.51)"/><path class="cls-2" d="M53.43,15.31a.23.23,0,0,1,0-.13v-.7c0-.08,0-.12,0-.13s-.08,0-.14.07a5.16,5.16,0,0,1-.4.39,3,3,0,0,1-.76.47,2.68,2.68,0,0,1-1.15.22,3.3,3.3,0,0,1-1.66-.42,3,3,0,0,1-1.19-1.28,4.59,4.59,0,0,1-.44-2.12,4.9,4.9,0,0,1,.44-2.12,3.42,3.42,0,0,1,1.21-1.44,3.22,3.22,0,0,1,1.81-.51,2.75,2.75,0,0,1,1.26.25,4.66,4.66,0,0,1,.82.52c.09.07.15.09.18.07a.25.25,0,0,0,0-.17V4.87c0-.11,0-.16.13-.16H54a.12.12,0,0,1,.13.14V15.17a.21.21,0,0,1-.05.15.24.24,0,0,1-.14,0h-.35A.16.16,0,0,1,53.43,15.31ZM52.32,8.5a2.57,2.57,0,0,0-1.18-.28,2.6,2.6,0,0,0-1.43.41,2.79,2.79,0,0,0-1,1.17,4.28,4.28,0,0,0-.36,1.84,4,4,0,0,0,.37,1.83,2.52,2.52,0,0,0,1,1.07,2.62,2.62,0,0,0,1.32.34,2.27,2.27,0,0,0,1.19-.31,2.59,2.59,0,0,0,.83-.78,1.57,1.57,0,0,0,.31-.88V9.29A4.81,4.81,0,0,0,52.32,8.5Z" transform="translate(-3.45 -4.51)"/><path class="cls-2" d="M59.88,15.21a3.61,3.61,0,0,1-1.45.29,2.65,2.65,0,0,1-1.78-.56A1.88,1.88,0,0,1,56,13.42a2,2,0,0,1,.41-1.27,2.69,2.69,0,0,1,1.21-.83,7,7,0,0,1,2-.41L61,10.79a.38.38,0,0,0,.18-.06.18.18,0,0,0,.07-.15v-.43a1.82,1.82,0,0,0-.56-1.41,2.13,2.13,0,0,0-1.49-.52,2.53,2.53,0,0,0-1.29.33,3.23,3.23,0,0,0-1.05.95.25.25,0,0,1-.07.09s0,0-.09,0l-.44-.23s0,0,0-.05a.19.19,0,0,1,0-.1,3.58,3.58,0,0,1,1.18-1.14,3.47,3.47,0,0,1,1.79-.44,3.31,3.31,0,0,1,1.46.29,2.16,2.16,0,0,1,.94.85A2.7,2.7,0,0,1,62,10.08V15.2a.21.21,0,0,1,0,.12.18.18,0,0,1-.11,0h-.37a.2.2,0,0,1-.11,0,.21.21,0,0,1,0-.12l0-.82q0-.2-.15,0A4.14,4.14,0,0,1,59.88,15.21Zm1.18-3.84-1.21.1a7.35,7.35,0,0,0-1.39.2,3.5,3.5,0,0,0-1,.39,1.66,1.66,0,0,0-.56.56,1.4,1.4,0,0,0-.19.73,1.35,1.35,0,0,0,.5,1.11,2.11,2.11,0,0,0,1.35.41,2.86,2.86,0,0,0,1-.19,3.27,3.27,0,0,0,.88-.49,2.7,2.7,0,0,0,.59-.65,1.29,1.29,0,0,0,.2-.64V11.58C61.26,11.43,61.19,11.36,61.06,11.37Z" transform="translate(-3.45 -4.51)"/><path class="cls-2" d="M68.54,7.81a2.92,2.92,0,0,1,.93.56,3.88,3.88,0,0,1,.73.83c0,.08,0,.13,0,.16l-.44.21a.13.13,0,0,1-.17-.05,4,4,0,0,0-.71-.75,2.65,2.65,0,0,0-.7-.4,2,2,0,0,0-.75-.13,2.58,2.58,0,0,0-1.47.41A2.64,2.64,0,0,0,65,9.8a4.14,4.14,0,0,0-.34,1.75A4.11,4.11,0,0,0,65,13.3a2.67,2.67,0,0,0,1,1.16,2.59,2.59,0,0,0,1.47.42,2.51,2.51,0,0,0,1.3-.35,3.42,3.42,0,0,0,1-1.07.19.19,0,0,1,.07-.08.11.11,0,0,1,.07,0l.4.22s.06.08,0,.16a4,4,0,0,1-.56.72,3.27,3.27,0,0,1-.69.55,3,3,0,0,1-.8.33,3.41,3.41,0,0,1-.92.12,3.28,3.28,0,0,1-3-1.87,4.58,4.58,0,0,1-.44-2.05,4.56,4.56,0,0,1,.45-2.06,3.35,3.35,0,0,1,1.23-1.4,3.51,3.51,0,0,1,3-.31Z" transform="translate(-3.45 -4.51)"/><path class="cls-2" d="M72.87,5.94c0,.16-.07.23-.21.23h-.48a.17.17,0,0,1-.14,0A.33.33,0,0,1,72,6V4.91a.18.18,0,0,1,.19-.2h.49a.18.18,0,0,1,.19.2Zm-.08,9.23a.24.24,0,0,1,0,.14.21.21,0,0,1-.15,0h-.36c-.08,0-.13,0-.14,0a.21.21,0,0,1,0-.12V7.91c0-.11,0-.16.13-.16h.44c.1,0,.14,0,.14.16Z" transform="translate(-3.45 -4.51)"/><path class="cls-2" d="M76.49,15a3.33,3.33,0,0,1-1.23-1.37,4.55,4.55,0,0,1-.43-2,4.58,4.58,0,0,1,.45-2.08,3.38,3.38,0,0,1,1.24-1.4,3.32,3.32,0,0,1,1.84-.51,3.24,3.24,0,0,1,3.06,1.9,4.52,4.52,0,0,1,.44,2.06,4.44,4.44,0,0,1-.44,2A3.52,3.52,0,0,1,76.49,15Zm3.36-.54a2.69,2.69,0,0,0,.94-1.15,4.39,4.39,0,0,0,.32-1.74,4.27,4.27,0,0,0-.33-1.75,2.79,2.79,0,0,0-1-1.17,2.54,2.54,0,0,0-1.46-.43,2.59,2.59,0,0,0-1.47.43,2.74,2.74,0,0,0-1,1.17,4.11,4.11,0,0,0-.34,1.75,4,4,0,0,0,.34,1.73,2.56,2.56,0,0,0,2.45,1.57A2.63,2.63,0,0,0,79.85,14.46Zm.39-9.38c0,.09,0,.15-.11.19L76.87,6.32h-.11a.29.29,0,0,1-.08-.08L76.61,6c0-.09,0-.14,0-.16L80,4.52a.1.1,0,0,1,.13.06Z" transform="translate(-3.45 -4.51)"/><path class="cls-2" d="M83.9,15.21V7.89c0-.09,0-.14.13-.14h.41c.09,0,.13,0,.13.13v.87q0,.08,0,.09s.05,0,.09,0a10.92,10.92,0,0,1,1-.65,3.88,3.88,0,0,1,.85-.41,3.1,3.1,0,0,1,.94-.13,2.33,2.33,0,0,1,1.73.59,2,2,0,0,1,.6,1.53V15.2a.14.14,0,0,1-.16.15h-.42a.13.13,0,0,1-.1,0,.14.14,0,0,1,0-.11V10a1.84,1.84,0,0,0-.4-1.27,1.66,1.66,0,0,0-1.31-.46,2.62,2.62,0,0,0-.9.15,4,4,0,0,0-.85.43c-.29.19-.61.42-1,.71v5.68c0,.1-.06.14-.16.14H84A.12.12,0,0,1,83.9,15.21Z" transform="translate(-3.45 -4.51)"/></svg>